<?xml version="1.0" standalone="no"?>
<!DOCTYPE svg PUBLIC "-//W3C//DTD SVG 20010904//EN"
 "http://www.w3.org/TR/2001/REC-SVG-20010904/DTD/svg10.dtd">
<svg version="1.0" xmlns="http://www.w3.org/2000/svg"
 width="512.000000pt" height="512.000000pt" viewBox="0 0 512.000000 512.000000"
 preserveAspectRatio="xMidYMid meet">
<metadata>
Created by potrace 1.11, written by Peter Selinger 2001-2013
</metadata>
<g transform="translate(0.000000,512.000000) scale(0.100000,-0.100000)"
fill="#000000" stroke="none">
<path d="M2355 5030 c-807 -47 -1565 -503 -1979 -1191 -177 -293 -276 -558
-337 -904 -29 -162 -36 -506 -15 -689 68 -585 324 -1102 749 -1512 477 -461
1079 -704 1746 -704 541 0 1064 175 1499 502 195 147 438 403 568 599 285 432
424 890 424 1399 0 414 -86 773 -270 1135 -284 560 -767 992 -1353 1212 -212
79 -468 136 -668 148 -191 11 -237 12 -364 5z m-180 -1055 c32 -9 80 -28 107
-42 92 -50 186 -173 203 -266 10 -51 40 -51 50 0 17 93 111 216 203 266 53 29
150 57 196 57 16 0 38 -7 48 -17 18 -16 24 -68 10 -89 -11 -17 -48 -34 -75
-34 -99 0 -227 -107 -251 -211 -5 -25 -3 -28 40 -38 109 -28 275 -132 370
-233 161 -171 262 -377 328 -670 4 -16 13 -28 20 -28 27 0 192 90 246 134 155
128 260 328 276 528 8 90 25 118 72 118 78 -1 88 -76 36 -280 -63 -246 -234
-460 -459 -577 -44 -22 -100 -47 -124 -54 l-43 -13 6 -44 c3 -25 6 -67 6 -93
l0 -49 158 0 c86 0 162 -4 168 -8 20 -13 35 -51 28 -76 -11 -47 -27 -51 -188
-53 -83 0 -156 -2 -162 -2 -6 -1 -16 -44 -23 -98 -7 -53 -15 -101 -17 -107 -2
-6 20 -26 50 -44 216 -129 361 -365 367 -599 2 -59 -1 -69 -21 -85 -27 -22
-65 -17 -91 10 -9 10 -20 52 -27 98 -21 154 -75 265 -179 368 -57 57 -127 106
-136 96 -2 -3 -20 -48 -41 -100 -64 -164 -146 -289 -271 -415 -178 -178 -323
-245 -534 -245 -165 0 -284 37 -422 131 -177 119 -335 334 -419 567 -13 34
-28 62 -35 62 -27 0 -136 -94 -185 -158 -67 -89 -108 -191 -122 -300 -9 -71
-15 -91 -35 -110 -28 -26 -50 -28 -81 -6 -19 13 -22 24 -22 83 0 229 148 473
366 603 35 21 52 38 49 47 -3 7 -11 56 -17 107 l-12 94 -36 1 c-19 0 -93 2
-163 2 -124 2 -130 3 -149 27 -14 17 -18 33 -14 55 10 51 25 55 198 55 l158 0
0 79 c0 44 2 86 5 93 4 10 -7 18 -37 27 -24 7 -77 30 -118 52 -265 137 -442
386 -486 682 -21 141 -9 177 60 177 44 0 62 -29 69 -111 19 -216 126 -415 296
-548 56 -43 199 -121 223 -121 8 0 23 41 39 108 67 268 221 523 408 674 85 69
195 128 274 150 43 11 46 14 41 37 -24 104 -152 211 -251 211 -27 0 -64 17
-75 34 -13 20 -8 69 9 88 20 22 60 23 138 3z"/>
<path d="M2389 3479 c-65 -15 -141 -49 -208 -93 -79 -52 -200 -172 -186 -185
12 -10 145 -45 229 -60 124 -23 323 -32 444 -21 129 12 297 43 346 64 l31 14
-96 94 c-104 101 -192 155 -304 183 -63 16 -197 18 -256 4z m-62 -159 c16 -33
-3 -64 -43 -68 -47 -6 -72 49 -38 83 23 23 66 15 81 -15z m447 14 c9 -8 16
-22 16 -30 0 -55 -66 -75 -96 -29 -15 23 -15 27 0 50 19 29 56 33 80 9z"/>
<path d="M1875 3036 c-96 -164 -157 -427 -157 -676 0 -361 102 -665 299 -892
280 -324 664 -342 957 -45 334 339 427 1039 204 1544 -23 51 -45 96 -49 99 -5
2 -48 -7 -96 -20 -142 -41 -257 -57 -436 -63 -231 -8 -425 16 -617 76 -36 12
-68 21 -72 21 -4 0 -19 -20 -33 -44z"/>
</g>
</svg>
