<?xml version="1.0" standalone="no"?>
<!DOCTYPE svg PUBLIC "-//W3C//DTD SVG 20010904//EN"
 "http://www.w3.org/TR/2001/REC-SVG-20010904/DTD/svg10.dtd">
<svg version="1.0" xmlns="http://www.w3.org/2000/svg"
 width="512.000000pt" height="512.000000pt" viewBox="0 0 512.000000 512.000000"
 preserveAspectRatio="xMidYMid meet">
<metadata>
Created by potrace 1.11, written by Peter Selinger 2001-2013
</metadata>
<g transform="translate(0.000000,512.000000) scale(0.100000,-0.100000)"
fill="#000000" stroke="none">
<path d="M2327 4114 c-1 -1 -92 -4 -202 -8 -110 -3 -211 -8 -225 -10 -14 -3
-71 -7 -126 -11 -56 -3 -110 -7 -120 -9 -11 -2 -50 -7 -89 -11 -143 -14 -161
-16 -185 -20 -14 -2 -50 -6 -80 -10 -127 -14 -198 -48 -287 -136 -98 -97 -195
-270 -273 -484 -18 -49 -39 -104 -46 -122 -8 -17 -14 -34 -14 -37 0 -3 -9 -30
-21 -61 -20 -54 -21 -55 -60 -53 -38 1 -39 3 -40 37 -6 170 -26 198 -126 187
-135 -15 -240 -40 -266 -64 -24 -21 -46 -69 -51 -112 -7 -60 50 -106 153 -124
103 -18 183 -18 222 -1 34 16 44 17 79 5 22 -7 40 -15 40 -18 0 -25 -54 -73
-159 -143 -167 -111 -277 -195 -285 -216 -11 -27 -36 -218 -44 -328 -8 -125
-8 -499 2 -710 4 -88 9 -203 11 -255 2 -52 7 -112 11 -135 9 -55 39 -112 64
-120 11 -4 161 -8 333 -11 171 -2 348 -6 392 -9 44 -3 154 -5 245 -6 136 -1
174 2 215 17 57 20 96 21 530 8 365 -10 842 -10 1235 1 173 4 347 9 385 10 39
1 86 -4 105 -12 80 -29 150 -32 485 -18 99 4 297 8 440 10 143 1 271 5 283 9
44 14 71 101 77 244 2 53 7 162 12 242 15 286 8 769 -13 910 -23 159 -23 158
-80 205 -30 24 -122 89 -205 145 -92 62 -158 114 -169 133 l-19 31 35 15 c33
13 42 12 86 -4 37 -13 66 -16 117 -11 194 17 270 59 257 142 -15 94 -59 132
-176 150 -14 2 -38 6 -55 9 -137 22 -177 15 -194 -37 -9 -28 -18 -97 -20 -160
-1 -14 -10 -18 -39 -18 l-38 0 -43 118 c-107 294 -152 396 -227 509 -63 98
-153 189 -216 221 -50 25 -151 48 -253 57 -38 4 -77 8 -85 10 -8 3 -53 7 -100
11 -47 3 -94 8 -104 10 -10 2 -58 6 -105 10 -47 3 -104 7 -126 10 -114 10
-838 26 -848 18z m678 -158 c313 -12 580 -32 700 -52 17 -3 62 -11 100 -19 39
-8 73 -15 77 -15 4 0 29 -22 57 -49 59 -57 147 -189 196 -293 67 -142 123
-366 96 -382 -13 -8 -61 -8 -246 -1 -565 22 -2504 22 -2920 0 -33 -2 -93 -4
-134 -5 -108 -3 -113 8 -70 170 45 166 126 330 234 467 57 72 87 89 200 112
113 23 177 30 375 45 158 12 204 15 405 21 110 4 201 8 202 9 5 4 571 -2 728
-8z m-2429 -1282 c213 -30 422 -91 579 -169 94 -47 229 -134 221 -142 -1 -2
-27 -7 -57 -13 -30 -6 -85 -22 -123 -36 -64 -25 -76 -26 -172 -20 -57 3 -109
8 -116 11 -12 3 -52 9 -163 21 -38 4 -61 0 -95 -15 -25 -11 -56 -21 -69 -21
-25 0 -181 45 -220 63 -52 25 -78 146 -63 295 l4 43 88 -2 c48 -1 132 -8 186
-15z m4196 -2 c11 -41 6 -196 -8 -242 -18 -62 -44 -80 -161 -114 -110 -31
-114 -31 -181 -6 -36 14 -67 19 -95 16 -23 -3 -67 -8 -97 -12 -30 -3 -58 -8
-61 -10 -4 -2 -55 -6 -115 -10 -103 -5 -114 -4 -201 25 -51 17 -104 31 -117
31 -14 0 -27 4 -30 9 -11 17 141 118 254 169 97 43 312 106 440 129 111 19
203 29 280 30 75 1 89 -1 92 -15z m-1882 -506 c36 -3 85 -8 110 -10 25 -3 90
-10 145 -16 55 -6 111 -13 125 -15 14 -2 45 -6 70 -10 104 -13 182 -38 227
-72 94 -72 173 -173 173 -221 0 -90 -124 -201 -241 -217 -192 -25 -1782 -24
-1929 1 -87 15 -177 75 -213 142 -27 51 -28 92 -3 140 22 42 157 168 200 186
37 15 158 40 246 50 70 8 222 27 255 31 17 3 80 7 140 11 61 3 112 8 114 10 5
5 506 -4 581 -10z"/>
<path d="M144 1095 c6 -126 21 -199 51 -233 l23 -27 257 -1 c256 -2 256 -2
284 22 18 14 33 41 40 68 13 51 15 125 4 127 -35 6 -134 9 -342 11 -277 1
-275 0 -306 88 l-16 45 5 -100z"/>
<path d="M4915 1153 c-3 -20 -19 -48 -34 -63 l-27 -27 -249 -2 c-138 -1 -270
-3 -295 -4 l-45 -2 -1 -46 c-2 -78 7 -109 40 -143 l31 -34 256 2 c236 1 259 3
278 20 34 31 50 95 58 239 6 99 1 126 -12 60z"/>
</g>
</svg>
